<svg width="20" height="15" viewBox="0 0 20 15" fill="none" xmlns="http://www.w3.org/2000/svg">
<path d="M18.3334 2.93457V11.2679C18.3334 11.8204 18.1139 12.3503 17.7232 12.741C17.3325 13.1317 16.8026 13.3512 16.2501 13.3512H3.75008C3.19755 13.3512 2.66764 13.1317 2.27694 12.741C1.88624 12.3503 1.66675 11.8204 1.66675 11.2679V2.93457" stroke="black" stroke-width="1.4" stroke-linecap="round" stroke-linejoin="round"/>
<path d="M18.3334 2.9349C18.3334 2.38236 18.1139 1.85246 17.7232 1.46176C17.3325 1.07106 16.8026 0.851563 16.2501 0.851562H3.75008C3.19755 0.851563 2.66764 1.07106 2.27694 1.46176C1.88624 1.85246 1.66675 2.38236 1.66675 2.9349L8.89591 7.44878C9.22702 7.65573 9.60962 7.76546 10.0001 7.76546C10.3905 7.76546 10.7731 7.65573 11.1042 7.44878L18.3334 2.9349Z" stroke="black" stroke-width="1.4" stroke-linecap="round" stroke-linejoin="round"/>
</svg>
