<svg width="32" height="32" viewBox="0 0 32 32" fill="none" xmlns="http://www.w3.org/2000/svg">
<g clip-path="url(#clip0_544_7732)">
<path d="M4.26995 20.55C3.8366 20.549 3.41269 20.6766 3.05189 20.9167C2.69109 21.1567 2.40962 21.4984 2.24309 21.8985C2.07657 22.2985 2.03249 22.739 2.11642 23.1642C2.20036 23.5893 2.40854 23.98 2.71462 24.2868C3.0207 24.5936 3.41091 24.8026 3.83586 24.8876C4.26082 24.9725 4.70141 24.9294 5.10187 24.7638C5.50233 24.5982 5.84466 24.3175 6.08552 23.9572C6.32638 23.597 6.45495 23.1734 6.45495 22.74C6.45364 22.1605 6.22317 21.6049 5.81383 21.1947C5.40449 20.7844 4.8495 20.5526 4.26995 20.55ZM4.26995 23.44C4.13151 23.44 3.99617 23.399 3.88105 23.322C3.76594 23.2451 3.67622 23.1358 3.62324 23.0079C3.57026 22.88 3.55639 22.7392 3.5834 22.6034C3.61041 22.4677 3.67708 22.3429 3.77498 22.245C3.87287 22.1471 3.9976 22.0805 4.13339 22.0535C4.26918 22.0264 4.40992 22.0403 4.53783 22.0933C4.66574 22.1463 4.77506 22.236 4.85198 22.3511C4.9289 22.4662 4.96995 22.6016 4.96995 22.74C4.96864 22.9253 4.89447 23.1025 4.76348 23.2335C4.63249 23.3645 4.4552 23.4387 4.26995 23.44ZM20.9 20.5C20.4537 20.5 20.0176 20.6324 19.6466 20.8804C19.2757 21.1284 18.9867 21.4809 18.8161 21.8932C18.6456 22.3056 18.6012 22.7592 18.6887 23.1968C18.7761 23.6343 18.9913 24.0361 19.3072 24.3513C19.6231 24.6665 20.0253 24.8808 20.4631 24.9673C20.9009 25.0537 21.3544 25.0084 21.7664 24.8369C22.1783 24.6655 22.5302 24.3757 22.7773 24.0042C23.0245 23.6327 23.1559 23.1962 23.155 22.75C23.155 22.4541 23.0966 22.1611 22.9832 21.8878C22.8698 21.6145 22.7036 21.3662 22.4942 21.1572C22.2847 20.9482 22.0361 20.7826 21.7625 20.6698C21.489 20.5571 21.1958 20.4993 20.9 20.5ZM20.9 23.47C20.7575 23.47 20.6183 23.4278 20.4999 23.3487C20.3815 23.2695 20.2893 23.1571 20.2348 23.0255C20.1803 22.894 20.166 22.7492 20.1938 22.6095C20.2216 22.4699 20.2901 22.3416 20.3908 22.2409C20.4915 22.1402 20.6198 22.0716 20.7595 22.0438C20.8992 22.0161 21.0439 22.0303 21.1755 22.0848C21.307 22.1393 21.4195 22.2316 21.4986 22.35C21.5777 22.4684 21.62 22.6076 21.62 22.75C21.6173 22.9392 21.5403 23.1198 21.4056 23.2527C21.2708 23.3855 21.0892 23.46 20.9 23.46V23.47Z" fill="white"/>
<path d="M30.57 19.2002H10.13V10.4652C10.13 10.3755 10.1122 10.2866 10.0777 10.2038C10.0433 10.121 9.99273 10.0458 9.92905 9.98257C9.86538 9.91936 9.78982 9.86937 9.70674 9.83549C9.62366 9.80162 9.5347 9.78451 9.44498 9.78517H3.73498L0.939983 13.0002V17.0902C0.940861 17.1547 0.928291 17.2187 0.903073 17.2782C0.877855 17.3376 0.840542 17.3911 0.793509 17.4353C0.746476 17.4795 0.690754 17.5135 0.629889 17.535C0.569024 17.5564 0.504349 17.565 0.439983 17.5602C0.314426 17.5703 0.197298 17.6273 0.112015 17.72C0.0267323 17.8127 -0.0204206 17.9342 -0.020017 18.0602V21.2652C-0.020017 21.5463 0.0916613 21.8159 0.29045 22.0147C0.489238 22.2135 0.758854 22.3252 1.03998 22.3252H1.61998C1.71197 21.6886 2.03023 21.1065 2.51645 20.6855C3.00268 20.2645 3.62431 20.0328 4.26748 20.0328C4.91065 20.0328 5.53229 20.2645 6.01851 20.6855C6.50474 21.1065 6.823 21.6886 6.91498 22.3252H18.18C18.2771 21.6732 18.6051 21.0778 19.1044 20.6474C19.6036 20.217 20.2408 19.9803 20.9 19.9803C21.5591 19.9803 22.1964 20.217 22.6956 20.6474C23.1948 21.0778 23.5229 21.6732 23.62 22.3252H24.33C24.4233 21.6709 24.7495 21.0723 25.2487 20.6392C25.7479 20.2062 26.3866 19.9678 27.0475 19.9678C27.7084 19.9678 28.347 20.2062 28.8462 20.6392C29.3455 21.0723 29.6717 21.6709 29.765 22.3252H30.57C30.7194 22.3239 30.8624 22.2639 30.9681 22.1582C31.0737 22.0526 31.1337 21.9096 31.135 21.7602V19.7602C31.1337 19.6112 31.0736 19.4688 30.9677 19.3639C30.8619 19.259 30.719 19.2002 30.57 19.2002ZM8.21998 15.7902H2.71998V13.4702L4.40998 11.5852H8.23498L8.21998 15.7902Z" fill="white"/>
<path d="M27.0449 20.5C26.5999 20.5 26.1649 20.632 25.7949 20.8792C25.4249 21.1264 25.1365 21.4778 24.9662 21.889C24.7959 22.3001 24.7513 22.7525 24.8382 23.189C24.925 23.6254 25.1393 24.0263 25.4539 24.341C25.7686 24.6557 26.1695 24.8699 26.606 24.9568C27.0424 25.0436 27.4948 24.999 27.906 24.8287C28.3171 24.6584 28.6685 24.37 28.9157 24C29.163 23.63 29.2949 23.195 29.2949 22.75C29.2936 22.1537 29.0561 21.5821 28.6345 21.1605C28.2128 20.7388 27.6413 20.5013 27.0449 20.5ZM27.0449 23.47C26.9027 23.469 26.764 23.4259 26.6463 23.3462C26.5285 23.2665 26.437 23.1537 26.3833 23.0221C26.3296 22.8904 26.316 22.7458 26.3444 22.6065C26.3727 22.4672 26.4417 22.3393 26.5426 22.2391C26.6435 22.1389 26.7718 22.0709 26.9113 22.0435C27.0508 22.0161 27.1953 22.0307 27.3266 22.0853C27.4579 22.1399 27.57 22.2322 27.6489 22.3505C27.7278 22.4688 27.7699 22.6078 27.7699 22.75C27.7693 22.8443 27.75 22.9376 27.7131 23.0244C27.6763 23.1112 27.6226 23.1899 27.5552 23.2559C27.4878 23.3219 27.408 23.3739 27.3205 23.4089C27.2329 23.444 27.1392 23.4613 27.0449 23.46V23.47Z" fill="white"/>
<path d="M25.725 8.49512H23.53V9.17512H25.725V8.49512Z" fill="white"/>
<path d="M25.725 10.5049H23.53V11.5199H25.725V10.5049Z" fill="white"/>
<path d="M25.725 12.8496H23.53V13.8696H25.725V12.8496Z" fill="white"/>
<path d="M25.725 15.2002H23.53V16.2152H25.725V15.2002Z" fill="white"/>
<path d="M25.725 17.5449H23.53V18.5699H25.725V17.5449Z" fill="white"/>
<path d="M32 13.5299C32.0002 12.2104 31.4819 10.9438 30.5569 10.0029C29.6319 9.06195 28.3743 8.52218 27.055 8.49988V18.5649C28.3751 18.5426 29.6336 18.0021 30.5587 17.0601C31.4838 16.1182 32.0015 14.8502 32 13.5299ZM23.12 17.1349H26.12V18.4149H26.62V7.95988C26.6275 7.92287 26.6266 7.88468 26.6175 7.84805C26.6084 7.81141 26.5912 7.77726 26.5673 7.74806C26.5434 7.71886 26.5133 7.69533 26.4792 7.67917C26.445 7.66301 26.4078 7.65463 26.37 7.65463C26.3323 7.65463 26.295 7.66301 26.2609 7.67917C26.2268 7.69533 26.1967 7.71886 26.1727 7.74806C26.1488 7.77726 26.1317 7.81141 26.1226 7.84805C26.1135 7.88468 26.1126 7.92287 26.12 7.95988V9.58488H23.12V7.95988C23.1045 7.90555 23.0717 7.85776 23.0266 7.82373C22.9815 7.7897 22.9265 7.7713 22.87 7.7713C22.8135 7.7713 22.7585 7.7897 22.7134 7.82373C22.6683 7.85776 22.6355 7.90555 22.62 7.95988V18.4149H23.12V17.1349ZM23.12 10.0949H26.12V11.9299H23.12V10.0949ZM23.12 12.4399H26.12V14.2799H23.12V12.4399ZM23.12 14.7899H26.12V16.6199H23.12V14.7899ZM15.68 18.5649H22.18V8.49988H19.315V7.89988H19.525C19.5546 7.89988 19.5838 7.89406 19.6111 7.88276C19.6384 7.87145 19.6632 7.85487 19.6841 7.83398C19.705 7.81309 19.7216 7.78828 19.7329 7.76099C19.7442 7.73369 19.75 7.70443 19.75 7.67488V7.22988C19.75 7.20034 19.7442 7.17108 19.7329 7.14378C19.7216 7.11648 19.705 7.09168 19.6841 7.07078C19.6632 7.04989 19.6384 7.03332 19.6111 7.02201C19.5838 7.0107 19.5546 7.00488 19.525 7.00488H16.15C16.0907 7.00616 16.0343 7.03027 15.9923 7.0722C15.9504 7.11412 15.9263 7.17061 15.925 7.22988V7.67488C15.925 7.73456 15.9487 7.79179 15.9909 7.83398C16.0331 7.87618 16.0903 7.89988 16.15 7.89988H16.36V8.49988H15.68C14.3447 8.49988 13.064 9.03035 12.1197 9.9746C11.1755 10.9188 10.645 12.1995 10.645 13.5349C10.645 14.8702 11.1755 16.1509 12.1197 17.0952C13.064 18.0394 14.3447 18.5699 15.68 18.5699V18.5649Z" fill="white"/>
</g>
<defs>
<clipPath id="clip0_544_7732">
<rect width="32" height="32" fill="white"/>
</clipPath>
</defs>
</svg>
