<svg width="32" height="32" viewBox="0 0 32 32" fill="none" xmlns="http://www.w3.org/2000/svg">
<g clip-path="url(#clip0_566_516)">
<path d="M26.3599 9.64L26.3799 9.62L21.4133 4.66667L19.9999 6.08L22.8133 8.89333C22.1829 9.13286 21.6402 9.55814 21.2569 10.1129C20.8735 10.6676 20.6677 11.3257 20.6666 12C20.6666 13.84 22.1599 15.3333 23.9999 15.3333C24.4733 15.3333 24.9266 15.2333 25.3333 15.0533V24.6667C25.3333 25.4 24.7333 26 23.9999 26C23.2666 26 22.6666 25.4 22.6666 24.6667V18.6667C22.6666 17.1933 21.4733 16 19.9999 16H18.6666V6.66667C18.6666 5.19333 17.4733 4 15.9999 4H7.99992C6.52659 4 5.33325 5.19333 5.33325 6.66667V28H18.6666V18H20.6666V24.6667C20.6666 26.5067 22.1599 28 23.9999 28C25.8399 28 27.3333 26.5067 27.3333 24.6667V12C27.3333 11.08 26.9599 10.2467 26.3599 9.64ZM15.9999 13.3333H7.99992V6.66667H15.9999V13.3333ZM23.9999 13.3333C23.2666 13.3333 22.6666 12.7333 22.6666 12C22.6666 11.2667 23.2666 10.6667 23.9999 10.6667C24.7333 10.6667 25.3333 11.2667 25.3333 12C25.3333 12.7333 24.7333 13.3333 23.9999 13.3333Z" fill="white"/>
</g>
<defs>
<clipPath id="clip0_566_516">
<rect width="32" height="32" fill="white"/>
</clipPath>
</defs>
</svg>
