<svg width="32" height="32" viewBox="0 0 32 32" fill="none" xmlns="http://www.w3.org/2000/svg">
<path d="M21.0432 13.4529C21.0432 13.2831 20.9758 13.1204 20.8557 13.0003C20.7357 12.8803 20.5729 12.8129 20.4032 12.8129H4.47999C4.31026 12.8129 4.14747 12.8803 4.02745 13.0003C3.90742 13.1204 3.83999 13.2831 3.83999 13.4529V22.6689C3.83831 23.0532 3.91255 23.4341 4.05846 23.7896C4.20437 24.1452 4.41907 24.4684 4.69023 24.7408C4.9614 25.0131 5.28369 25.2292 5.63861 25.3767C5.99352 25.5242 6.37406 25.6001 6.75839 25.6001H22.2336C21.474 24.818 21.0473 23.7719 21.0432 22.6817V13.4529ZM5.47839 16.0129C5.47839 15.8431 5.54582 15.6804 5.66585 15.5603C5.78587 15.4403 5.94866 15.3729 6.11839 15.3729H12.16C12.3297 15.3729 12.4925 15.4403 12.6125 15.5603C12.7326 15.6804 12.8 15.8431 12.8 16.0129V21.1329C12.8 21.3026 12.7326 21.4654 12.6125 21.5854C12.4925 21.7054 12.3297 21.7729 12.16 21.7729H6.11839C5.94866 21.7729 5.78587 21.7054 5.66585 21.5854C5.54582 21.4654 5.47839 21.3026 5.47839 21.1329V16.0129ZM18.56 24.3201H6.11839C5.94866 24.3201 5.78587 24.2526 5.66585 24.1326C5.54582 24.0126 5.47839 23.8498 5.47839 23.6801C5.47839 23.5103 5.54582 23.3476 5.66585 23.2275C5.78587 23.1075 5.94866 23.0401 6.11839 23.0401H18.56C18.7297 23.0401 18.8925 23.1075 19.0125 23.2275C19.1326 23.3476 19.2 23.5103 19.2 23.6801C19.2 23.8498 19.1326 24.0126 19.0125 24.1326C18.8925 24.2526 18.7297 24.3201 18.56 24.3201ZM18.56 21.7601H14.72C14.5503 21.7601 14.3875 21.6926 14.2674 21.5726C14.1474 21.4526 14.08 21.2898 14.08 21.1201C14.08 20.9503 14.1474 20.7876 14.2674 20.6675C14.3875 20.5475 14.5503 20.4801 14.72 20.4801H18.56C18.7297 20.4801 18.8925 20.5475 19.0125 20.6675C19.1326 20.7876 19.2 20.9503 19.2 21.1201C19.2 21.2898 19.1326 21.4526 19.0125 21.5726C18.8925 21.6926 18.7297 21.7601 18.56 21.7601ZM18.56 19.2001H14.72C14.5503 19.2001 14.3875 19.1326 14.2674 19.0126C14.1474 18.8926 14.08 18.7298 14.08 18.5601C14.08 18.3903 14.1474 18.2276 14.2674 18.1075C14.3875 17.9875 14.5503 17.9201 14.72 17.9201H18.56C18.7297 17.9201 18.8925 17.9875 19.0125 18.1075C19.1326 18.2276 19.2 18.3903 19.2 18.5601C19.2 18.7298 19.1326 18.8926 19.0125 19.0126C18.8925 19.1326 18.7297 19.2001 18.56 19.2001ZM18.56 16.6401H14.72C14.5503 16.6401 14.3875 16.5726 14.2674 16.4526C14.1474 16.3326 14.08 16.1698 14.08 16.0001C14.08 15.8303 14.1474 15.6676 14.2674 15.5475C14.3875 15.4275 14.5503 15.3601 14.72 15.3601H18.56C18.7297 15.3601 18.8925 15.4275 19.0125 15.5475C19.1326 15.6676 19.2 15.8303 19.2 16.0001C19.2 16.1698 19.1326 16.3326 19.0125 16.4526C18.8925 16.5726 18.7297 16.6401 18.56 16.6401ZM11.52 20.4801H6.75839V16.6401H11.52V20.4801ZM28.16 7.07848L28.0576 22.6689C28.084 23.0675 28.0283 23.4674 27.894 23.8436C27.7596 24.2198 27.5494 24.5645 27.2764 24.8562C27.0034 25.1479 26.6734 25.3805 26.3069 25.5394C25.9404 25.6984 25.5451 25.7804 25.1456 25.7804C24.7461 25.7804 24.3508 25.6984 23.9843 25.5394C23.6177 25.3805 23.2878 25.1479 23.0148 24.8562C22.7418 24.5645 22.5316 24.2198 22.3972 23.8436C22.2628 23.4674 22.2071 23.0675 22.2336 22.6689L22.3232 12.1345C22.3232 11.9647 22.2558 11.802 22.1357 11.6819C22.0157 11.5619 21.8529 11.4945 21.6832 11.4945H10.9568V7.07848C10.9568 6.90874 11.0242 6.74595 11.1442 6.62593C11.2643 6.5059 11.4271 6.43848 11.5968 6.43848H27.52C27.6897 6.43848 27.8525 6.5059 27.9725 6.62593C28.0926 6.74595 28.16 6.90874 28.16 7.07848Z" fill="white"/>
</svg>
