<svg width="20" height="19" viewBox="0 0 20 19" fill="none" xmlns="http://www.w3.org/2000/svg">
<path d="M12.2517 17.3705L12.2608 17.3768C13.0478 17.878 13.9823 18.0956 14.9097 17.9937C15.8372 17.8919 16.7022 17.4766 17.3617 16.8166L17.9346 16.2437C18.0616 16.1168 18.1623 15.9662 18.231 15.8003C18.2998 15.6345 18.3351 15.4568 18.3351 15.2773C18.3351 15.0978 18.2998 14.92 18.231 14.7542C18.1623 14.5884 18.0616 14.4377 17.9346 14.3108L15.5181 11.8961C15.3912 11.7691 15.2405 11.6684 15.0747 11.5997C14.9089 11.5309 14.7311 11.4956 14.5516 11.4956C14.3721 11.4956 14.1944 11.5309 14.0286 11.5997C13.8627 11.6684 13.7121 11.7691 13.5852 11.8961C13.329 12.1522 12.9815 12.2961 12.6192 12.2961C12.2569 12.2961 11.9094 12.1522 11.6532 11.8961L7.78926 8.03121C7.53311 7.77499 7.38922 7.42752 7.38922 7.06522C7.38922 6.70292 7.53311 6.35546 7.78926 6.09923C7.91623 5.97235 8.01695 5.82169 8.08566 5.65586C8.15438 5.49003 8.18975 5.31229 8.18975 5.13279C8.18975 4.95329 8.15438 4.77555 8.08566 4.60972C8.01695 4.44389 7.91623 4.29323 7.78926 4.16635L5.3736 1.7516C5.11738 1.49546 4.76991 1.35156 4.40762 1.35156C4.04532 1.35156 3.69785 1.49546 3.44163 1.7516L2.86777 2.32455C2.20792 2.98419 1.79286 3.8492 1.69117 4.77667C1.58948 5.70413 1.80725 6.63853 2.30849 7.42547L2.31396 7.43458C4.96114 11.3512 8.33458 14.724 12.2517 17.3705V17.3705Z" stroke="black" stroke-width="1.4" stroke-linecap="round" stroke-linejoin="round"/>
</svg>
